<?xml version="1.0" standalone="no"?>
<!DOCTYPE svg PUBLIC "-//W3C//DTD SVG 20010904//EN"
 "http://www.w3.org/TR/2001/REC-SVG-20010904/DTD/svg10.dtd">
<svg version="1.0" xmlns="http://www.w3.org/2000/svg"
 width="1326.000000pt" height="1463.000000pt" viewBox="0 0 1326.000000 1463.000000"
 preserveAspectRatio="xMidYMid meet">

<g transform="translate(0.000000,1463.000000) scale(0.100000,-0.100000)"
fill="#000000" stroke="none">
<path d="M10 7315 l0 -7315 6610 0 6609 0 6 32 c4 18 4 946 1 2063 -3 1117 -5
4394 -5 7283 l-1 5252 -6610 0 -6610 0 0 -7315z m8000 5820 c23 -8 65 -15 92
-15 27 0 59 -5 71 -12 12 -6 67 -20 122 -30 173 -31 209 -39 233 -54 34 -22
75 -89 68 -112 -6 -18 -14 -19 -101 -14 -55 3 -106 0 -122 -6 -15 -6 -41 -13
-57 -17 -36 -8 -94 -66 -131 -131 -34 -61 -57 -79 -84 -65 -10 6 -49 13 -87
16 -38 4 -91 13 -119 20 -27 8 -88 17 -135 21 -47 3 -92 10 -101 15 -9 5 -58
13 -108 19 -50 6 -116 17 -148 25 -31 8 -83 15 -114 15 -31 0 -72 6 -90 14
-19 7 -71 16 -116 20 -45 3 -94 13 -110 21 -15 8 -34 15 -41 15 -9 0 -12 15
-10 53 2 34 7 51 15 50 7 -2 59 -6 115 -9 57 -4 111 -11 121 -16 10 -5 59 -13
110 -19 51 -5 130 -17 177 -26 83 -16 160 -13 160 7 0 5 15 12 34 15 26 5 41
18 65 55 17 26 31 52 31 57 0 6 16 31 35 57 l36 46 73 0 c41 0 93 -7 116 -15z
m-3573 -177 c-3 -8 -6 -5 -6 6 -1 11 2 17 5 13 3 -3 4 -12 1 -19z m1699 -143
c20 -8 66 -18 102 -21 37 -4 76 -11 87 -17 11 -6 54 -16 95 -23 163 -27 191
-37 224 -77 25 -32 28 -40 16 -48 -8 -5 -28 -6 -43 -3 -48 10 -221 6 -247 -6
-57 -25 -120 -79 -120 -102 0 -6 -9 -21 -20 -35 -11 -14 -20 -34 -20 -43 0
-10 -7 -21 -16 -24 -29 -11 -160 -6 -210 8 -27 8 -78 17 -114 21 -36 4 -85 13
-110 20 -25 8 -78 19 -117 25 -165 23 -221 33 -268 46 -27 7 -83 16 -124 19
-40 4 -83 11 -95 16 -11 5 -48 13 -81 17 -59 7 -60 7 -66 44 -9 60 -3 63 103
51 51 -6 116 -16 143 -23 206 -47 333 -63 425 -54 61 6 68 9 106 51 23 24 45
55 48 69 7 26 43 83 61 96 19 14 204 9 241 -7z m2375 -105 c10 -6 58 -16 107
-21 48 -6 94 -15 103 -20 9 -5 59 -13 110 -19 51 -6 97 -15 103 -19 6 -5 34
-12 61 -16 91 -12 104 -16 141 -50 32 -30 38 -43 46 -96 14 -103 45 -192 75
-220 53 -47 92 -69 122 -69 17 0 50 -6 73 -14 24 -8 68 -19 98 -25 30 -6 80
-18 110 -26 30 -8 61 -15 70 -16 8 0 26 -14 39 -30 22 -29 24 -36 18 -126 -3
-52 -8 -97 -10 -99 -3 -3 -38 -7 -78 -10 -41 -3 -92 -11 -114 -19 -22 -7 -69
-16 -105 -19 -36 -3 -101 -13 -145 -21 -315 -58 -310 -58 -319 -7 -3 20 -6 74
-6 119 0 68 -4 90 -27 135 -14 29 -34 59 -42 66 -30 23 -140 72 -164 72 -14 0
-42 6 -63 14 -22 7 -70 17 -109 21 -38 4 -74 10 -80 15 -5 4 -41 11 -80 15
-38 3 -95 13 -125 20 -31 8 -89 18 -130 21 -41 4 -85 13 -99 21 -15 7 -49 13
-78 13 -29 0 -72 6 -95 14 -24 8 -77 18 -118 21 -41 4 -95 13 -120 20 -25 7
-74 16 -110 20 -35 3 -72 11 -82 16 -9 5 -45 12 -80 16 -60 6 -111 30 -131 61
-4 6 -15 12 -23 12 -8 0 -31 9 -51 20 -21 11 -45 20 -53 20 -8 0 -33 6 -55 14
-22 7 -75 17 -118 21 -81 7 -97 18 -97 64 0 11 -7 26 -15 35 -8 8 -15 17 -15
20 0 11 98 6 136 -7 22 -8 76 -17 122 -20 45 -4 90 -11 100 -16 10 -5 54 -13
98 -16 43 -4 102 -13 129 -20 28 -8 88 -17 135 -21 47 -4 90 -11 96 -15 6 -5
56 -13 110 -19 55 -5 113 -14 129 -19 48 -16 210 -28 283 -20 61 6 70 10 100
45 19 22 48 63 64 92 17 29 40 59 51 67 25 17 80 20 108 5z m-4440 -114 c19
-7 64 -16 101 -20 36 -3 79 -13 95 -21 15 -8 50 -15 76 -15 26 0 64 -7 84 -15
19 -8 49 -15 65 -15 42 0 149 -38 177 -63 29 -27 42 -60 28 -69 -12 -7 -47 -3
-114 14 -54 13 -178 -13 -231 -48 -47 -32 -65 -54 -103 -133 l-32 -63 -71 7
c-39 3 -90 13 -114 21 -23 8 -60 14 -80 14 -21 0 -65 7 -97 16 -33 8 -95 19
-139 24 -43 5 -83 13 -90 18 -6 5 -45 12 -86 16 -41 4 -93 13 -115 21 -22 8
-63 14 -90 15 -28 0 -66 5 -85 11 -19 6 -71 17 -115 23 l-80 11 -3 59 -3 58
38 -6 c21 -3 72 -10 113 -16 41 -6 95 -17 120 -25 25 -7 74 -17 110 -20 36 -4
84 -13 108 -21 23 -8 77 -14 119 -14 61 0 83 4 112 22 53 33 100 86 111 127
25 87 103 123 191 87z m5459 -111 c23 -8 65 -15 92 -15 27 0 61 -6 76 -14 15
-8 59 -17 97 -21 39 -4 78 -12 89 -17 10 -6 57 -16 105 -23 47 -7 104 -18 126
-24 22 -6 58 -11 80 -11 22 0 52 -6 66 -14 15 -7 62 -17 105 -21 44 -4 88 -12
99 -18 11 -5 58 -14 104 -18 46 -4 87 -11 90 -16 3 -4 19 -15 36 -23 23 -12
31 -25 37 -55 9 -53 10 -187 0 -201 -4 -6 -45 -17 -92 -23 -47 -6 -114 -15
-150 -21 -66 -10 -152 -22 -282 -40 -40 -6 -104 -15 -142 -20 -84 -13 -86 -11
-86 83 0 85 -31 183 -69 223 -42 42 -87 74 -104 74 -8 0 -28 7 -43 15 -16 8
-41 15 -55 15 -15 0 -55 9 -89 20 -34 11 -72 20 -84 20 -28 0 -120 32 -140 49
-11 9 -16 30 -16 62 l0 49 54 0 c29 0 73 -7 96 -15z m-3016 -34 c3 -4 36 -10
73 -13 38 -3 100 -12 138 -21 110 -26 256 -55 307 -62 26 -3 50 -10 53 -14 2
-5 20 -12 39 -15 18 -4 40 -14 49 -24 20 -23 44 -97 53 -163 16 -121 80 -198
182 -217 31 -6 95 -20 142 -31 47 -12 112 -26 145 -32 33 -5 62 -14 65 -18 3
-4 15 -13 28 -20 21 -11 22 -17 22 -136 0 -138 -3 -155 -30 -148 -10 3 -29 -2
-41 -10 -14 -8 -61 -17 -109 -20 -47 -3 -99 -11 -115 -17 -17 -6 -70 -16 -120
-21 -49 -5 -99 -13 -110 -19 -31 -15 -215 -28 -223 -15 -4 5 -7 66 -8 135 -1
96 -5 132 -17 155 -9 17 -17 38 -17 48 0 10 -7 20 -15 23 -8 4 -15 10 -15 15
0 11 -41 50 -71 68 -13 8 -48 20 -79 28 -30 8 -71 18 -90 23 -19 5 -54 10 -76
10 -23 0 -59 6 -80 14 -22 7 -76 16 -121 20 -45 3 -97 13 -117 21 -19 8 -52
15 -73 15 -21 0 -71 9 -112 20 -41 11 -92 20 -113 20 -22 0 -48 5 -58 10 -11
6 -63 17 -117 25 -54 7 -122 19 -150 24 -109 22 -161 32 -258 46 -54 9 -102
19 -105 23 -15 21 -120 83 -150 88 -19 4 -40 11 -46 15 -6 5 -46 14 -90 20
-43 6 -86 15 -96 20 -9 5 -25 9 -36 9 -26 0 -42 21 -49 64 -5 31 -3 36 13 36
11 0 29 -6 40 -14 11 -8 58 -19 104 -24 47 -6 103 -15 125 -21 22 -6 64 -11
93 -11 29 0 65 -6 80 -14 15 -8 63 -17 107 -21 44 -4 88 -12 98 -17 11 -5 61
-14 113 -19 52 -5 103 -13 114 -19 10 -6 47 -13 82 -16 35 -3 85 -13 113 -21
31 -10 90 -16 160 -17 100 -1 113 1 145 23 37 25 90 98 90 124 0 24 79 97 106
97 12 0 25 -4 28 -9z m-4394 -123 c25 -5 74 -15 110 -23 36 -8 98 -17 139 -21
41 -4 86 -13 100 -20 14 -8 47 -14 72 -14 25 0 68 -6 95 -14 27 -8 78 -17 114
-21 36 -4 85 -13 110 -20 25 -7 79 -18 120 -24 103 -15 235 -38 295 -50 28 -6
79 -15 115 -20 124 -19 195 -32 245 -46 28 -7 82 -16 120 -20 39 -4 75 -11 81
-16 7 -5 51 -14 98 -19 47 -6 111 -17 143 -25 65 -17 169 -20 206 -6 37 14
101 86 131 146 38 78 67 98 136 92 67 -7 162 -23 250 -43 36 -8 90 -17 120
-20 30 -4 74 -12 98 -20 23 -8 57 -14 75 -14 44 0 119 -39 133 -70 7 -14 17
-52 22 -85 34 -201 87 -269 220 -282 31 -3 68 -11 82 -18 14 -7 49 -16 78 -20
30 -4 66 -13 80 -21 15 -8 37 -14 50 -14 12 0 38 -10 57 -22 l35 -23 0 -167 0
-168 -46 0 c-25 0 -53 4 -63 10 -10 5 -56 14 -102 20 -46 5 -102 17 -124 25
-22 8 -60 15 -85 15 -25 0 -63 7 -85 15 -22 8 -74 18 -115 22 -41 3 -80 12
-87 18 -6 7 -45 15 -86 18 -41 3 -85 10 -97 17 -11 6 -53 14 -93 16 -40 3 -83
10 -97 15 -26 10 -135 29 -296 53 -50 8 -100 18 -110 24 -11 5 -50 13 -89 16
-38 4 -95 13 -125 21 -30 7 -82 18 -115 23 -165 27 -204 35 -251 48 -28 8 -71
14 -96 14 -25 0 -74 9 -108 20 -34 11 -79 20 -100 20 -20 0 -59 7 -86 15 -27
8 -76 18 -109 21 -33 4 -68 11 -78 16 -11 5 -60 16 -110 24 -136 21 -206 34
-267 50 -30 8 -86 19 -125 24 -38 5 -94 14 -122 20 -29 5 -77 15 -105 21 -29
5 -82 15 -118 20 -36 6 -85 16 -110 24 -25 8 -75 17 -112 21 -106 10 -103 3
-105 216 -3 209 0 233 25 223 9 -4 37 -12 62 -17z m5363 -133 c20 -8 66 -15
102 -15 37 0 74 -4 84 -10 10 -5 52 -14 92 -20 41 -5 106 -17 144 -25 39 -8
99 -19 135 -24 36 -5 117 -19 180 -31 63 -11 156 -27 206 -34 50 -8 99 -18
110 -23 10 -6 52 -13 92 -16 41 -3 79 -11 86 -16 7 -6 31 -13 54 -17 47 -7 47
-8 56 -144 7 -125 6 -127 -77 -135 -40 -4 -80 -12 -91 -17 -10 -6 -65 -14
-123 -19 -58 -5 -112 -13 -122 -19 -10 -5 -53 -12 -97 -15 -43 -4 -102 -13
-131 -21 -28 -8 -78 -14 -111 -14 l-59 0 -7 61 c-3 34 -6 92 -6 129 0 112 -43
183 -140 230 -25 12 -52 26 -62 30 -9 5 -40 12 -70 16 -29 4 -70 13 -92 20
-21 8 -49 14 -63 14 -33 0 -135 37 -145 52 -9 16 -11 62 -1 71 9 10 16 9 56
-8z m-1910 -249 c12 -8 65 -17 117 -21 52 -4 100 -11 106 -16 7 -5 47 -14 90
-19 44 -5 90 -13 104 -18 15 -6 57 -13 95 -17 39 -3 90 -13 115 -20 25 -7 76
-16 114 -19 37 -3 74 -11 82 -17 8 -6 55 -14 106 -18 51 -4 102 -12 113 -18
11 -6 49 -14 85 -18 86 -9 159 -55 161 -100 6 -109 7 -204 3 -227 -7 -33 -36
-44 -156 -57 -48 -6 -96 -14 -105 -19 -10 -5 -54 -12 -98 -16 -44 -4 -109 -13
-145 -21 -95 -21 -309 -51 -311 -43 0 1 -3 71 -6 153 -3 83 -9 155 -13 160 -4
6 -10 26 -14 46 -14 77 -132 160 -249 175 -29 4 -59 10 -68 15 -9 4 -46 13
-83 19 -112 18 -176 54 -176 102 0 27 1 28 55 28 31 0 66 -6 78 -14z m6018
-2627 c-3 -2024 -6 -2425 -17 -2432 -10 -5 -14 -29 -14 -73 0 -51 -5 -72 -20
-91 -17 -22 -20 -41 -20 -122 -1 -69 -5 -102 -15 -115 -10 -14 -15 -45 -15
-98 0 -66 -3 -81 -20 -95 -17 -15 -20 -30 -20 -114 0 -59 -5 -110 -14 -130 -7
-19 -17 -72 -21 -119 -4 -46 -13 -93 -21 -104 -9 -13 -14 -47 -14 -96 0 -53
-5 -84 -18 -105 -16 -28 -17 -174 -18 -2565 -1 -1394 -2 -2567 -3 -2606 -1
-58 -4 -73 -18 -80 -22 -10 -41 -10 -3770 -19 l-3011 -8 -7 64 c-3 35 -5 371
-3 746 3 610 5 684 19 698 11 11 42 18 95 22 43 3 88 11 99 18 11 6 57 15 102
19 45 3 97 13 117 21 21 9 67 15 113 15 49 0 88 6 106 15 16 8 59 17 95 21 37
3 81 12 97 19 17 7 74 15 129 19 54 4 111 13 127 21 16 9 55 15 93 15 36 0 83
6 103 14 21 8 76 17 122 21 46 3 93 11 105 17 11 6 62 15 113 19 51 4 101 13
112 19 12 6 64 13 117 17 66 4 97 10 101 20 4 9 25 13 69 13 36 0 81 7 100 15
19 8 59 17 87 21 50 6 229 87 332 150 22 13 47 27 55 30 48 18 110 54 110 63
0 5 16 12 35 15 19 4 35 11 35 16 0 5 16 14 35 20 19 6 35 16 35 21 0 5 8 9
18 9 10 0 28 7 41 17 38 26 104 59 134 67 15 3 27 10 27 15 0 5 13 12 29 16
16 3 35 13 42 21 6 8 17 14 24 14 14 0 91 39 140 70 17 11 41 25 55 31 14 6
57 26 95 44 39 19 86 40 105 48 22 9 103 85 220 206 102 105 214 220 250 254
35 34 101 100 145 146 44 46 93 95 109 110 16 14 41 39 55 54 14 15 59 61 99
100 52 53 72 80 72 99 0 14 9 54 20 88 11 34 20 88 20 119 0 32 7 64 15 74 7
10 17 53 21 95 4 42 13 91 20 109 8 18 14 50 14 71 0 22 7 59 16 83 8 24 18
76 21 114 3 39 12 79 18 90 7 11 15 52 18 91 3 39 12 87 20 106 13 30 13 39 1
67 -8 19 -14 42 -14 53 0 11 -8 22 -19 25 -10 2 -24 16 -30 29 -7 15 -22 27
-41 31 -17 3 -33 10 -36 14 -7 12 -90 11 -112 -1 -9 -5 -29 -14 -43 -19 -15
-5 -43 -30 -64 -55 -34 -42 -38 -53 -43 -119 -2 -39 -10 -79 -17 -87 -7 -8
-15 -51 -18 -95 -3 -45 -13 -94 -21 -110 -9 -17 -16 -43 -16 -60 0 -16 -9 -64
-20 -105 -11 -41 -20 -100 -20 -131 0 -35 -5 -61 -14 -68 -8 -7 -15 -40 -18
-81 -3 -38 -10 -75 -15 -82 -6 -7 -14 -26 -17 -43 -8 -35 -33 -65 -99 -119
-26 -21 -47 -43 -47 -48 0 -12 -44 -59 -130 -141 -35 -34 -89 -88 -120 -119
-31 -32 -62 -58 -68 -58 -7 0 -12 -5 -12 -11 0 -12 -74 -92 -224 -241 -64 -64
-109 -101 -128 -105 -16 -3 -31 -9 -33 -14 -3 -4 -35 -22 -70 -38 -36 -17 -65
-35 -65 -40 0 -5 -15 -12 -34 -15 -19 -4 -39 -13 -46 -21 -7 -8 -19 -15 -26
-15 -8 0 -36 -15 -62 -33 -26 -19 -64 -37 -84 -41 -20 -3 -41 -13 -48 -21 -7
-8 -19 -15 -27 -15 -7 0 -16 -6 -19 -14 -3 -8 -18 -18 -34 -21 -16 -3 -34 -13
-41 -21 -6 -8 -16 -14 -21 -14 -14 0 -257 -120 -263 -130 -3 -5 -18 -11 -34
-15 -16 -3 -32 -13 -35 -21 -3 -8 -13 -14 -23 -14 -10 0 -34 -9 -53 -20 -19
-11 -58 -31 -87 -45 -28 -13 -54 -29 -58 -34 -3 -6 -19 -11 -34 -11 -15 0 -36
-7 -47 -15 -12 -9 -43 -14 -89 -15 -39 0 -95 -7 -125 -16 -30 -8 -95 -20 -143
-25 -49 -5 -98 -14 -109 -20 -11 -6 -57 -13 -102 -16 -44 -3 -90 -11 -101 -18
-11 -6 -60 -15 -109 -19 -50 -4 -99 -12 -110 -18 -12 -7 -65 -15 -118 -19 -53
-4 -106 -13 -118 -19 -11 -6 -60 -14 -108 -17 -48 -3 -96 -11 -107 -18 -11 -6
-60 -15 -110 -19 -49 -4 -95 -12 -103 -18 -7 -6 -55 -14 -106 -17 -51 -3 -99
-11 -107 -17 -8 -6 -54 -14 -104 -18 -49 -3 -112 -13 -139 -21 -27 -8 -70 -15
-95 -15 -25 -1 -64 -8 -86 -16 -22 -8 -77 -17 -123 -21 -50 -4 -86 -11 -93
-19 -8 -9 -35 -14 -83 -14 -39 0 -104 -9 -145 -20 -41 -11 -95 -20 -120 -20
-25 -1 -64 -7 -86 -15 -44 -16 -135 -20 -135 -6 0 5 -24 21 -52 36 -29 15 -60
33 -68 40 -8 6 -53 32 -100 56 -47 24 -89 50 -93 56 -4 7 -15 13 -23 13 -9 0
-27 9 -41 20 -14 11 -34 20 -44 20 -11 0 -19 4 -19 8 0 5 -15 16 -32 25 -70
37 -148 83 -160 95 -7 7 -20 12 -30 12 -10 0 -21 6 -24 14 -3 8 -19 18 -36 21
-26 6 -29 10 -23 33 5 22 4 24 -9 13 -9 -7 -22 -11 -29 -8 -21 8 -11 375 10
400 20 22 52 22 83 0 33 -23 118 -63 136 -63 7 0 35 -13 62 -29 27 -16 63 -32
80 -35 17 -4 33 -14 36 -22 3 -8 15 -14 26 -14 11 0 37 -9 58 -20 40 -22 71
-20 131 7 18 8 48 13 67 11 27 -3 34 0 34 13 0 12 12 18 48 23 26 4 56 13 66
21 11 8 30 15 43 15 13 0 40 9 60 20 21 11 51 20 68 20 16 1 41 7 55 15 14 8
34 14 45 15 11 0 37 16 57 36 21 19 42 33 48 29 6 -4 10 5 10 22 1 15 7 39 15
53 19 33 19 81 0 106 -8 10 -15 28 -15 39 0 13 -20 36 -53 60 -50 38 -55 40
-127 40 -52 0 -83 -5 -100 -17 -14 -8 -43 -19 -65 -23 -46 -8 -155 -43 -170
-55 -5 -4 -30 -11 -55 -15 -25 -4 -51 -12 -58 -18 -16 -13 -53 -1 -169 54 -44
22 -88 39 -96 39 -8 0 -20 6 -26 14 -6 7 -39 23 -74 36 -34 12 -67 28 -72 35
-6 7 -25 16 -42 19 -17 4 -36 13 -42 20 -6 7 -34 23 -63 35 -29 13 -84 39
-122 57 -37 19 -74 34 -81 34 -7 0 -18 6 -24 14 -7 8 -30 17 -52 21 -24 4 -39
12 -39 21 0 9 -11 14 -30 14 -20 0 -33 6 -37 18 -4 9 -22 36 -40 60 -18 24
-33 47 -33 52 0 5 -13 23 -29 41 -40 43 -44 84 -14 131 14 20 31 39 39 42 8 3
14 12 14 19 0 8 8 21 18 30 15 13 19 14 36 1 11 -8 30 -14 42 -14 12 0 27 -7
34 -15 7 -8 27 -17 46 -21 18 -3 38 -12 44 -20 7 -7 33 -16 58 -20 26 -4 49
-10 52 -14 7 -9 116 -60 129 -60 5 0 22 -6 38 -14 72 -35 100 -46 130 -52 18
-4 38 -13 44 -20 6 -8 21 -14 33 -14 12 0 38 -9 59 -20 20 -11 45 -20 54 -20
10 0 27 -7 37 -15 11 -8 27 -15 37 -15 9 0 29 -10 45 -23 26 -20 37 -22 148
-19 83 2 125 7 135 16 11 9 60 16 145 20 71 4 135 11 141 16 7 6 70 15 140 20
70 5 133 14 139 19 6 5 71 14 144 20 73 6 142 15 152 21 10 5 44 10 76 10 50
0 62 4 100 35 23 19 46 45 50 58 4 12 11 25 17 29 6 3 13 33 15 65 3 45 0 63
-12 75 -9 9 -16 26 -16 37 0 13 -19 32 -55 57 l-56 36 -127 -7 c-70 -4 -143
-13 -162 -20 -19 -7 -86 -16 -148 -19 -62 -2 -119 -10 -127 -16 -7 -6 -67 -15
-133 -19 -66 -4 -126 -12 -134 -18 -12 -10 -201 -27 -279 -26 -19 0 -56 10
-82 22 -25 11 -54 21 -64 21 -10 0 -28 6 -39 14 -11 8 -37 17 -57 21 -20 4
-41 13 -47 20 -6 8 -26 17 -43 21 -18 3 -41 13 -52 20 -11 8 -29 14 -40 14
-11 0 -29 6 -40 14 -11 7 -35 17 -53 21 -18 3 -62 22 -98 41 -36 19 -76 34
-89 34 -12 0 -28 6 -34 14 -6 7 -29 16 -50 20 -21 3 -44 13 -51 21 -7 8 -24
15 -38 15 -14 0 -35 8 -46 18 -12 10 -46 26 -76 36 -30 9 -73 26 -95 36 -78
36 -113 50 -128 50 -29 0 -44 50 -31 105 7 28 13 91 13 140 1 72 5 95 20 112
l19 23 782 2 c751 3 783 4 794 22 15 24 86 116 109 138 9 10 17 25 17 33 0 9
7 18 15 21 8 4 15 12 15 20 0 7 6 17 13 21 6 4 32 34 57 66 25 32 59 75 76 95
17 20 34 47 38 60 4 12 12 22 17 22 5 0 13 8 16 17 4 9 15 25 25 35 26 26 26
118 -1 125 -11 3 -22 16 -25 29 -4 14 -14 33 -24 43 -9 10 -26 31 -37 47 -11
15 -34 44 -51 64 -17 19 -34 43 -37 53 -4 9 -11 17 -16 17 -5 0 -13 9 -16 20
-3 11 -13 20 -21 20 -8 0 -14 9 -14 20 0 11 -16 36 -35 56 -19 19 -35 40 -35
45 0 9 -17 31 -57 73 -13 13 -23 26 -23 29 0 3 -11 17 -24 31 -27 30 -92 37
-102 11 -4 -8 -16 -15 -29 -15 -12 0 -30 -9 -40 -20 -10 -11 -26 -20 -35 -20
-10 0 -23 -6 -29 -14 -7 -8 -26 -18 -42 -21 -17 -4 -33 -13 -36 -21 -3 -8 -13
-14 -23 -14 -9 0 -28 -8 -41 -18 -28 -21 -112 -62 -126 -62 -20 0 -103 -87
-103 -107 0 -11 -7 -26 -15 -33 -8 -7 -15 -25 -15 -40 0 -33 35 -116 61 -144
11 -11 19 -23 19 -26 0 -16 57 -30 121 -30 63 0 80 5 163 45 52 25 103 45 115
45 13 0 30 -14 47 -40 15 -22 30 -40 34 -40 4 0 12 -12 19 -26 13 -29 11 -33
-41 -88 -16 -17 -28 -35 -28 -41 0 -6 -8 -18 -17 -26 -10 -9 -32 -33 -50 -53
l-32 -36 -674 0 c-371 0 -694 3 -718 6 -35 5 -49 13 -69 41 -14 19 -33 42 -42
51 -10 9 -18 22 -18 28 0 7 -7 14 -15 18 -8 3 -15 12 -15 19 0 8 -9 22 -20 32
-11 10 -20 26 -20 37 0 10 -7 18 -15 18 -8 0 -15 9 -15 20 0 11 -7 23 -15 26
-8 3 -19 21 -25 39 -9 27 -7 43 10 92 12 32 24 72 27 88 3 17 12 39 19 50 8
11 14 27 14 37 0 10 9 35 20 55 11 21 20 45 20 54 0 9 6 22 14 28 8 6 17 31
20 55 4 25 13 47 20 49 8 3 16 20 19 39 5 36 33 118 52 158 7 14 16 40 20 58
3 17 10 32 15 32 4 0 11 19 15 43 4 23 13 49 20 57 7 8 16 34 20 57 3 23 13
47 21 54 8 6 14 21 14 33 1 11 9 39 20 61 11 22 19 45 20 51 0 6 6 17 14 23 7
6 16 33 20 60 4 27 11 51 17 53 5 2 14 19 19 38 16 64 43 135 57 151 7 8 13
28 13 44 0 16 7 36 16 46 9 10 18 36 21 58 3 22 12 46 19 52 8 6 14 17 14 23
0 6 7 25 16 41 9 17 20 46 25 65 9 40 33 111 54 157 8 17 15 37 15 45 0 7 6
22 14 33 7 11 17 35 21 54 4 19 16 48 26 65 10 17 19 38 19 47 0 9 7 30 15 45
8 16 15 36 15 45 0 9 7 22 15 29 8 7 15 21 15 32 0 11 11 44 25 74 14 30 25
64 25 75 0 18 4 20 33 16 83 -14 158 -36 172 -51 9 -9 32 -16 50 -16 19 0 36
-4 39 -9 3 -5 30 -14 58 -21 29 -7 63 -18 75 -26 12 -8 36 -14 52 -14 16 0 37
-7 46 -17 9 -9 39 -18 68 -21 29 -3 56 -11 60 -18 4 -8 23 -14 42 -14 18 0 40
-6 48 -14 8 -8 36 -17 63 -21 27 -4 56 -13 64 -20 8 -7 32 -16 53 -20 20 -4
39 -11 42 -15 3 -5 24 -11 48 -15 23 -4 58 -16 77 -26 19 -11 49 -19 66 -19
18 0 34 -6 37 -14 4 -9 28 -17 61 -21 31 -4 61 -13 67 -21 6 -8 26 -14 43 -14
17 0 41 -7 53 -15 11 -8 39 -17 62 -21 22 -4 46 -13 52 -20 6 -8 23 -14 38
-14 15 0 35 -6 46 -14 11 -7 42 -16 69 -20 27 -3 54 -10 60 -15 6 -5 34 -15
61 -22 28 -7 59 -18 70 -26 11 -7 31 -13 45 -13 14 0 34 -6 45 -14 11 -7 39
-17 62 -20 23 -4 44 -14 47 -22 4 -9 21 -14 52 -14 31 0 54 -6 67 -17 16 -15
39 -18 142 -18 72 0 132 5 146 12 13 6 73 16 132 22 59 6 117 16 128 21 11 6
52 14 92 17 40 3 81 12 92 19 12 9 46 14 88 14 38 0 84 7 105 15 20 9 73 19
117 22 44 3 90 12 102 19 12 8 48 14 81 14 33 0 88 9 122 20 34 11 85 20 112
20 27 0 64 6 83 14 19 8 70 18 115 22 44 3 83 10 85 15 3 4 31 11 63 15 72 8
86 16 122 66 27 36 30 49 30 113 0 95 -12 126 -68 172 l-47 38 -88 -3 c-49 -1
-101 -9 -116 -16 -14 -7 -64 -16 -110 -19 -46 -4 -89 -11 -96 -17 -6 -5 -53
-14 -103 -19 -50 -5 -100 -15 -111 -21 -12 -6 -58 -13 -103 -16 -46 -4 -92
-12 -103 -19 -11 -6 -59 -14 -106 -17 -47 -3 -96 -11 -108 -17 -12 -7 -61 -16
-107 -21 -47 -5 -91 -13 -97 -18 -7 -5 -49 -12 -94 -15 -46 -4 -96 -13 -112
-22 -18 -9 -56 -15 -91 -15 -36 0 -76 -7 -96 -16 -31 -15 -37 -15 -81 0 -25 9
-55 16 -65 16 -10 0 -35 9 -55 20 -21 11 -48 20 -60 20 -12 0 -24 4 -27 9 -4
5 -29 14 -57 20 -28 6 -57 18 -65 26 -9 9 -34 15 -60 15 -30 0 -46 5 -50 15
-4 9 -19 15 -38 15 -17 1 -49 9 -71 20 -22 11 -51 19 -65 20 -14 0 -35 7 -47
15 -11 8 -39 17 -62 21 -22 4 -46 13 -52 20 -6 8 -21 14 -33 14 -11 0 -34 7
-51 16 -16 8 -52 18 -78 21 -27 3 -51 12 -54 18 -2 7 -28 16 -58 20 -29 3 -59
13 -66 21 -6 8 -20 14 -30 14 -11 0 -36 9 -56 20 -21 11 -52 20 -70 20 -17 0
-44 6 -60 14 -38 19 -120 46 -168 56 -22 5 -53 16 -70 24 -16 9 -42 16 -56 16
-15 0 -32 6 -38 14 -6 7 -31 16 -56 18 -24 3 -51 13 -60 22 -9 9 -31 16 -48
16 -18 0 -41 6 -52 14 -11 7 -40 17 -65 21 -25 4 -49 10 -55 14 -22 15 -123
50 -162 56 -23 4 -47 13 -54 21 -6 8 -23 14 -38 14 -14 0 -43 9 -64 20 -20 11
-52 20 -71 20 -18 0 -39 7 -46 15 -7 8 -24 15 -39 15 -14 0 -43 9 -64 20 -20
11 -47 20 -60 20 -13 0 -32 7 -43 15 -10 8 -40 17 -67 21 -26 4 -47 10 -47 15
0 4 -17 11 -37 14 -21 3 -55 15 -75 25 -20 11 -45 20 -55 20 -21 0 -137 37
-175 56 -14 8 -34 14 -45 14 -10 1 -36 9 -58 20 -22 11 -54 19 -71 20 -19 0
-34 6 -38 15 -3 10 -19 15 -45 15 -49 0 -71 8 -71 26 0 10 -14 14 -50 14 -35
0 -52 5 -56 14 -3 9 -27 17 -59 21 -30 4 -56 13 -59 20 -2 7 -25 16 -50 19
-25 4 -48 11 -51 16 -3 4 -22 11 -44 15 -38 6 -38 7 -45 58 -9 78 -7 2525 2
2531 18 11 194 -13 211 -28 13 -12 39 -16 95 -16 48 0 85 -5 99 -14 12 -7 55
-16 95 -20 41 -3 84 -11 95 -18 12 -6 59 -15 105 -19 46 -4 89 -12 95 -18 7
-5 44 -13 82 -17 39 -4 75 -11 81 -16 7 -5 45 -13 85 -17 41 -5 94 -16 118
-25 24 -9 72 -16 108 -16 35 0 74 -5 85 -11 12 -6 54 -15 94 -20 40 -5 88 -16
108 -24 19 -8 64 -15 98 -15 39 0 71 -6 84 -14 11 -8 49 -18 85 -22 35 -3 69
-10 74 -14 6 -5 51 -13 100 -19 50 -5 107 -17 127 -25 21 -9 62 -16 91 -16 30
0 67 -6 83 -14 16 -8 64 -17 106 -20 43 -4 93 -13 112 -21 20 -8 57 -15 83
-15 26 0 62 -7 78 -16 18 -10 66 -18 120 -21 50 -3 95 -10 101 -15 7 -5 55
-15 108 -23 53 -8 105 -19 116 -25 10 -5 44 -10 75 -10 31 0 69 -7 87 -16 16
-8 65 -19 107 -23 42 -5 86 -13 96 -18 11 -6 57 -13 102 -16 51 -3 90 -11 105
-21 15 -11 44 -16 89 -16 47 0 70 -4 79 -15 8 -10 30 -15 65 -15 29 0 81 -9
115 -20 34 -11 88 -20 119 -20 38 0 65 -6 81 -17 37 -26 385 -26 448 0 24 10
69 17 105 17 34 0 80 5 102 11 22 6 85 15 140 21 55 5 107 15 115 23 9 7 53
15 106 17 49 3 101 11 115 18 13 7 69 15 124 18 63 3 104 10 110 18 6 8 45 14
110 16 74 3 107 8 125 21 18 12 44 17 97 17 40 0 92 7 117 15 24 8 83 19 130
24 47 5 92 13 98 18 7 6 54 13 105 16 53 3 104 12 122 21 21 11 58 16 118 16
65 0 95 4 111 16 15 10 59 18 125 24 56 4 115 12 130 19 16 6 59 11 95 11 41
0 75 5 87 14 11 7 71 18 133 25 62 6 120 15 130 19 9 5 64 12 122 15 58 3 125
12 149 21 24 9 72 16 108 16 36 0 76 6 92 14 15 8 71 18 125 22 60 4 103 12
111 20 10 10 42 14 112 14 72 0 104 4 120 15 12 9 56 18 100 21 43 4 92 12
108 19 17 7 69 15 116 18 50 3 98 11 117 21 21 11 57 16 112 16 49 0 92 5 108
14 15 7 70 17 122 21 52 4 113 13 135 20 22 7 96 16 165 20 69 4 130 11 136
16 6 5 50 13 99 18 48 5 90 13 94 18 3 6 52 13 108 16 57 3 113 12 125 19 19
11 170 28 203 23 7 -1 9 -814 6 -2426z m-9291 -954 c7 -8 27 -15 44 -15 17 0
45 -7 61 -16 17 -9 44 -20 60 -23 28 -7 30 -10 28 -46 -2 -21 -10 -46 -18 -55
-8 -9 -15 -25 -15 -36 -1 -10 -9 -37 -20 -59 -11 -22 -19 -50 -20 -62 0 -12
-7 -28 -15 -37 -8 -8 -18 -35 -21 -60 -4 -25 -10 -46 -15 -46 -5 0 -13 -17
-19 -39 -5 -21 -17 -44 -25 -51 -8 -7 -15 -24 -15 -39 0 -15 -9 -44 -20 -66
-11 -22 -20 -51 -20 -66 0 -15 -7 -32 -15 -39 -8 -7 -15 -25 -15 -40 0 -15 -7
-33 -15 -40 -8 -7 -18 -30 -21 -51 -4 -23 -12 -39 -20 -39 -9 0 -14 -12 -14
-32 0 -18 -9 -46 -20 -63 -11 -16 -20 -42 -20 -56 0 -15 -7 -32 -15 -39 -8 -7
-15 -24 -15 -39 0 -41 -11 -71 -26 -71 -9 0 -14 -12 -14 -32 0 -18 -9 -46 -20
-63 -11 -16 -20 -40 -20 -53 0 -13 -7 -30 -15 -38 -8 -9 -15 -26 -15 -39 0
-51 -18 -31 -23 26 -3 33 -11 66 -17 74 -7 8 -15 44 -18 81 -3 42 -10 68 -18
71 -20 7 -20 189 0 208 7 8 17 34 20 59 4 24 14 50 21 56 8 7 15 22 15 34 0
11 7 34 15 50 8 15 15 38 15 50 0 11 7 34 15 50 8 16 18 47 22 70 3 22 14 52
25 65 10 13 18 38 18 56 0 18 7 38 15 45 8 7 17 28 20 49 4 20 13 48 21 63 8
14 14 35 14 46 0 11 6 27 14 35 8 7 17 39 21 70 4 33 13 58 21 61 8 3 14 16
14 28 0 30 42 117 56 118 6 0 17 -7 24 -15z"/>
<path d="M5680 10571 c-48 -10 -56 -16 -88 -64 l-27 -42 -3 -385 -3 -385 31
-42 c18 -24 39 -43 49 -43 9 0 26 -7 37 -15 10 -8 40 -15 66 -15 36 0 57 7 94
31 65 44 74 74 79 243 2 77 8 235 14 350 8 195 8 212 -11 267 -15 45 -27 63
-54 80 -38 23 -125 33 -184 20z"/>
<path d="M5596 9300 c-35 -39 -36 -41 -36 -125 0 -82 1 -87 33 -121 34 -37 80
-53 154 -54 50 0 102 40 135 103 33 66 8 170 -50 211 -33 23 -48 26 -119 26
l-81 0 -36 -40z"/>
<path d="M1788 8983 c7 -3 16 -2 19 1 4 3 -2 6 -13 5 -11 0 -14 -3 -6 -6z"/>
<path d="M10218 8582 c-33 -2 -61 -9 -68 -17 -7 -8 -20 -15 -29 -15 -9 0 -33
-9 -54 -20 -20 -11 -46 -20 -57 -20 -11 0 -23 -6 -26 -14 -3 -8 -24 -18 -45
-21 -22 -4 -43 -13 -46 -21 -3 -8 -15 -14 -27 -14 -11 0 -34 -7 -51 -16 -37
-19 -139 -54 -159 -54 -9 0 -20 -9 -26 -20 -6 -11 -18 -20 -28 -20 -10 0 -33
-27 -57 -66 -22 -37 -48 -74 -57 -83 -9 -9 -19 -28 -23 -43 -4 -16 -11 -28
-16 -28 -5 0 -15 -15 -24 -32 -17 -39 -34 -65 -56 -88 -8 -9 -26 -38 -38 -63
-13 -26 -27 -47 -31 -47 -5 0 -12 -10 -16 -22 -3 -13 -13 -30 -21 -39 -14 -17
-19 -59 -15 -141 4 -84 90 -158 186 -158 81 0 145 35 180 100 15 27 31 50 36
50 5 0 11 14 15 30 4 17 11 30 16 30 5 0 14 11 19 25 5 14 14 25 19 25 5 0 14
14 20 30 5 17 15 30 20 30 6 0 11 6 11 14 0 7 14 31 31 52 17 22 42 56 55 77
17 25 32 37 48 37 12 0 33 9 46 20 12 11 38 22 56 26 19 3 37 10 40 15 3 5 15
9 27 9 13 0 34 8 47 18 61 42 140 60 172 38 12 -9 33 -16 45 -16 13 0 40 -9
60 -20 21 -11 45 -20 54 -20 9 0 22 -7 29 -15 7 -8 22 -15 34 -15 11 0 35 -9
51 -20 17 -11 40 -20 51 -20 29 0 72 -58 80 -109 4 -22 13 -46 20 -52 8 -6 14
-22 14 -35 0 -13 9 -41 20 -61 11 -21 20 -47 20 -58 0 -12 7 -30 15 -41 8 -10
15 -32 15 -47 0 -15 6 -30 14 -33 8 -3 17 -17 21 -32 11 -46 6 -150 -8 -179
-8 -16 -18 -48 -22 -73 -4 -25 -10 -49 -14 -55 -4 -5 -13 -37 -21 -70 -7 -33
-19 -74 -26 -92 -8 -17 -14 -46 -14 -65 0 -18 -6 -45 -14 -60 -8 -14 -17 -50
-21 -78 -4 -28 -13 -64 -21 -78 -8 -15 -14 -41 -14 -57 0 -17 -9 -47 -20 -68
-11 -20 -20 -48 -20 -61 0 -14 -10 -30 -26 -41 -14 -9 -32 -31 -39 -50 -8 -18
-21 -35 -30 -38 -8 -4 -15 -11 -15 -16 0 -5 -14 -25 -31 -43 -17 -18 -35 -43
-39 -55 -7 -16 -15 -20 -31 -16 -19 5 -21 3 -16 -19 5 -20 3 -27 -13 -31 -10
-3 -28 -19 -38 -37 -11 -17 -29 -38 -41 -46 -12 -9 -27 -30 -35 -47 -8 -18
-37 -56 -65 -86 -28 -29 -51 -56 -51 -60 0 -3 -22 -16 -48 -28 -26 -12 -81
-37 -122 -56 -41 -19 -85 -38 -97 -42 -13 -3 -23 -10 -23 -15 0 -4 -12 -11
-27 -15 -16 -3 -35 -12 -43 -20 -8 -7 -31 -15 -51 -19 -21 -4 -42 -13 -49 -21
-7 -8 -21 -15 -31 -15 -9 0 -24 -7 -32 -15 -8 -7 -26 -17 -40 -20 -15 -4 -31
-13 -38 -21 -6 -8 -18 -14 -25 -14 -30 0 -134 -54 -140 -72 -3 -10 -17 -29
-30 -41 -20 -19 -26 -36 -31 -94 -5 -65 -4 -74 18 -103 30 -40 60 -70 90 -92
34 -26 138 -24 198 3 25 12 66 31 91 43 24 12 51 27 58 34 7 6 24 12 38 12 14
0 27 6 30 14 3 8 18 18 34 21 16 3 34 13 41 21 6 8 20 14 30 14 9 0 24 7 33
15 8 8 26 15 39 15 13 0 35 8 48 18 13 9 44 26 69 38 128 60 165 79 168 86 2
4 17 8 34 8 21 0 41 12 72 43 24 23 46 50 49 60 5 13 13 16 27 12 16 -5 20 -2
20 18 0 16 19 45 56 83 30 33 62 71 69 85 8 15 21 29 30 32 8 4 15 12 15 18 0
10 19 36 83 109 12 14 40 49 63 77 23 29 53 62 66 73 14 10 31 33 38 50 7 16
19 30 26 30 24 0 54 61 54 111 0 25 4 49 10 55 5 5 13 32 16 59 4 28 12 59 19
70 7 11 16 45 20 75 4 30 12 60 17 67 5 6 13 40 18 74 5 34 14 65 21 70 6 4
14 31 17 60 3 30 11 64 19 76 8 12 17 49 20 83 3 33 12 65 19 71 8 6 14 30 14
53 0 23 7 52 16 65 12 16 18 54 22 131 4 98 3 111 -17 143 -11 19 -21 45 -21
58 0 13 -7 33 -15 43 -8 11 -15 30 -15 43 0 12 -9 28 -20 35 -15 10 -20 24
-20 54 0 28 -6 47 -20 59 -11 10 -20 31 -20 46 0 15 -7 32 -15 36 -8 5 -18 31
-21 58 -4 28 -13 54 -21 58 -7 4 -13 25 -13 45 0 20 -12 60 -25 87 -14 28 -25
55 -25 62 0 16 -76 51 -127 59 -24 4 -43 10 -43 14 0 4 -12 11 -27 15 -15 3
-46 15 -70 26 -23 10 -51 19 -61 19 -11 0 -25 6 -31 14 -6 8 -31 17 -55 20
-25 4 -47 13 -50 21 -3 9 -19 15 -38 15 -18 0 -46 9 -63 20 -16 11 -39 20 -49
20 -11 0 -27 6 -35 14 -21 17 -53 22 -123 18z"/>
<path d="M7214 8220 c-42 -9 -80 -39 -94 -72 -7 -15 -18 -29 -26 -32 -23 -9
-18 -101 8 -147 36 -64 105 -95 204 -90 11 1 43 22 70 47 48 46 49 47 52 118
3 63 1 75 -21 103 -13 18 -35 41 -48 51 -28 22 -100 33 -145 22z"/>
<path d="M10248 7585 c-33 -38 -48 -113 -57 -275 -5 -91 -14 -160 -24 -185 -9
-22 -16 -59 -17 -82 0 -23 -4 -44 -9 -47 -5 -4 -23 -34 -40 -69 -63 -124 -84
-157 -103 -157 -4 0 -8 16 -8 35 0 21 -6 38 -14 41 -8 3 -17 20 -20 38 -4 22
-24 50 -62 86 -90 86 -110 94 -254 98 -121 3 -126 2 -176 -25 -92 -51 -114
-68 -129 -99 -8 -17 -21 -37 -29 -43 -8 -7 -18 -31 -21 -54 -4 -23 -14 -52
-23 -64 -17 -26 -12 -115 7 -121 6 -2 11 -19 11 -39 0 -19 7 -50 15 -67 26
-54 112 -143 150 -156 19 -6 35 -15 35 -20 0 -5 16 -14 35 -20 46 -15 309 -3
349 16 16 8 39 14 51 14 12 0 34 9 48 20 14 11 36 20 49 20 13 0 41 15 61 34
21 19 44 37 52 40 8 3 15 12 15 21 0 8 9 15 20 15 35 0 57 20 52 48 -5 23 -3
24 23 18 25 -6 27 -5 22 14 -4 17 -1 20 16 18 18 -2 21 1 19 23 -2 14 4 31 12
39 9 7 16 21 16 31 0 10 4 20 9 24 11 6 61 109 61 125 0 6 6 21 14 33 8 12 17
51 21 87 4 36 13 72 20 80 8 10 15 74 20 195 10 224 10 218 -9 269 -20 52 -46
66 -127 66 -51 0 -62 -4 -81 -25z m-545 -813 c14 -13 16 -25 11 -61 -9 -62
-26 -80 -73 -76 -56 4 -77 13 -91 41 -11 20 -12 29 -2 44 7 11 12 26 12 34 0
8 7 22 16 31 20 19 99 11 127 -13z"/>
<path d="M10681 7474 c0 -11 3 -14 6 -6 3 7 2 16 -1 19 -3 4 -6 -2 -5 -13z"/>
<path d="M10100 6060 c0 -5 5 -10 10 -10 6 0 10 5 10 10 0 6 -4 10 -10 10 -5
0 -10 -4 -10 -10z"/>
</g>
</svg>
