<?xml version="1.0" standalone="no"?>
<!DOCTYPE svg PUBLIC "-//W3C//DTD SVG 20010904//EN"
 "http://www.w3.org/TR/2001/REC-SVG-20010904/DTD/svg10.dtd">
<svg version="1.0" xmlns="http://www.w3.org/2000/svg"
 width="751.000000pt" height="740.000000pt" viewBox="0 0 751.000000 740.000000"
 preserveAspectRatio="xMidYMid meet">

<g transform="translate(0.000000,740.000000) scale(0.100000,-0.100000)"
fill="#000000" stroke="none">
<path d="M843 7050 l-23 -9 0 -3319 c0 -2567 3 -3321 12 -3330 9 -9 692 -12
3014 -12 l3002 0 4 24 c6 31 -1 6626 -7 6644 -3 9 -610 12 -2992 11 -1757 0
-2997 -4 -3010 -9z m3689 -696 c46 -8 107 -20 135 -25 37 -7 59 -18 73 -36 11
-14 20 -29 20 -33 0 -4 -30 -6 -66 -6 -61 1 -67 -1 -92 -29 -15 -17 -34 -41
-42 -53 l-15 -23 -270 46 c-148 26 -274 50 -278 54 -4 4 -5 15 -1 24 8 21 30
21 169 2 129 -18 166 -11 191 38 34 66 40 67 176 41z m-809 -148 c105 -22 168
-48 152 -64 -2 -3 -33 -5 -69 -6 -70 -2 -86 -10 -122 -68 -29 -45 -29 -46
-194 -14 -69 13 -180 34 -247 46 -105 19 -123 25 -123 40 0 11 4 21 8 24 4 2
57 -4 117 -14 61 -11 132 -20 158 -20 50 0 67 11 110 74 23 33 54 34 210 2z
m1107 -56 c136 -27 168 -37 174 -58 3 -9 10 -37 16 -62 7 -25 19 -53 27 -62
16 -18 83 -42 148 -53 68 -11 85 -28 85 -84 0 -57 17 -49 -170 -80 -189 -32
-171 -36 -174 36 -5 77 -31 118 -84 132 -49 13 -348 66 -487 86 -137 20 -146
22 -220 55 -33 15 -85 33 -115 40 -76 18 -83 22 -67 43 12 17 29 15 294 -29
163 -27 293 -44 309 -40 25 7 44 24 91 80 16 19 28 25 45 21 13 -2 70 -14 128
-25z m-2010 -56 c124 -24 170 -41 170 -66 0 -6 -20 -7 -49 -3 -65 9 -112 -12
-147 -64 -15 -23 -34 -41 -43 -41 -9 0 -130 19 -269 42 l-253 42 3 25 c4 31
18 31 181 0 130 -25 153 -19 192 47 31 53 32 53 215 18z m2536 -60 c137 -25
266 -48 287 -51 49 -7 69 -37 65 -95 l-3 -43 -125 -21 c-69 -11 -144 -24 -167
-27 l-43 -7 -1 42 c-1 105 -35 139 -166 165 -43 8 -84 22 -90 31 -12 15 -18
52 -9 52 2 0 116 -21 252 -46z m-1423 2 c70 -14 133 -28 139 -32 32 -18 58
-50 58 -71 0 -13 9 -42 20 -63 17 -34 28 -42 73 -54 28 -8 70 -18 92 -22 70
-11 85 -27 85 -89 0 -42 -4 -55 -17 -59 -23 -7 -303 -56 -320 -56 -9 0 -13 18
-13 60 0 114 -39 157 -160 175 -246 37 -577 104 -619 125 -20 10 -73 26 -118
36 -46 10 -83 20 -83 23 0 3 4 13 9 21 8 12 48 7 273 -33 145 -26 277 -47 293
-47 42 1 69 18 104 68 17 23 37 42 44 42 7 0 70 -11 140 -24z m-1928 -75 c127
-22 336 -58 466 -80 130 -23 257 -41 283 -41 49 0 64 10 121 84 l20 26 130
-21 c182 -30 190 -34 205 -105 20 -93 44 -111 203 -143 69 -15 79 -29 75 -114
l-3 -62 -40 3 c-33 2 -745 132 -1110 202 -55 10 -192 35 -305 55 -113 20 -221
39 -240 43 l-35 8 -3 92 c-2 51 -2 92 0 92 2 0 107 -18 233 -39z m2510 -61
c320 -53 322 -53 335 -99 12 -44 13 -78 1 -85 -8 -6 -330 -56 -356 -56 -12 0
-15 14 -15 58 0 102 -31 133 -164 161 -84 18 -105 30 -106 59 0 9 10 11 33 7
17 -3 140 -23 272 -45z m-902 -111 c328 -58 343 -62 351 -92 9 -33 7 -115 -3
-121 -4 -3 -80 -17 -167 -31 -87 -14 -169 -27 -181 -30 -22 -5 -23 -3 -23 72
0 60 -5 86 -20 110 -25 42 -40 49 -146 69 -85 16 -114 32 -114 61 0 7 5 13 11
13 6 0 137 -23 292 -51z m2503 -1116 c-7 -1173 -2 -1067 -77 -1508 l-39 -230
0 -1192 0 -1193 -1545 0 -1545 0 0 348 0 348 263 43 c144 23 294 49 332 56 39
7 120 21 180 30 174 26 252 43 293 63 57 28 296 154 307 162 6 4 69 38 140 75
l130 67 202 207 c165 167 204 213 209 241 3 19 24 124 45 233 21 109 39 214
39 233 0 42 -37 84 -75 84 -38 0 -84 -27 -90 -53 -3 -12 -25 -119 -49 -237
l-43 -215 -174 -177 -174 -176 -135 -70 c-163 -84 -294 -153 -375 -197 -39
-21 -85 -36 -130 -43 -38 -6 -191 -31 -340 -57 -356 -61 -703 -119 -841 -141
l-112 -17 -113 65 c-63 36 -147 83 -188 103 l-74 37 6 100 c4 55 8 102 10 105
3 2 54 -19 114 -47 61 -27 117 -50 126 -50 14 0 233 61 268 75 40 15 53 111
19 145 -28 28 -79 25 -189 -11 l-93 -31 -117 55 c-64 30 -154 73 -201 95 -81
38 -125 74 -164 134 -16 24 -16 27 5 64 13 22 24 41 25 42 3 5 149 -53 328
-130 l140 -60 190 26 c365 51 348 47 379 77 37 37 36 81 -2 120 -37 37 -43 37
-314 -2 l-219 -32 -76 30 c-219 87 -497 204 -499 211 -2 4 0 41 5 82 l7 75
360 5 359 5 64 80 c35 44 78 96 94 115 61 70 62 65 -51 215 -56 75 -109 139
-118 142 -15 6 -53 -11 -157 -70 -89 -51 -106 -69 -106 -113 0 -80 78 -110
153 -58 41 28 73 28 71 1 -1 -9 2 -14 7 -12 4 3 13 -4 19 -16 11 -19 6 -27
-37 -71 l-48 -49 -320 6 -320 6 -27 32 c-16 18 -42 53 -59 79 l-31 48 56 152
c31 84 78 212 106 283 66 168 213 566 234 630 9 28 21 56 25 64 10 16 40 7
661 -196 l385 -126 105 16 c58 9 200 32 315 52 116 19 243 41 284 47 115 19
156 71 116 147 -17 33 -33 41 -84 41 -35 0 -308 -46 -592 -100 l-115 -22 -310
100 c-170 56 -361 117 -424 136 -63 19 -155 48 -205 65 -49 16 -178 57 -285
91 -107 34 -274 88 -370 120 l-175 57 -3 587 c-2 539 -1 586 14 586 20 0 456
-81 589 -110 50 -10 153 -30 230 -44 77 -13 266 -48 420 -76 154 -28 303 -55
330 -60 28 -5 138 -25 245 -45 179 -33 201 -36 265 -26 39 6 176 27 305 46
129 20 343 53 475 75 132 21 350 55 485 75 135 20 299 45 365 55 677 108 867
138 909 139 l28 1 -6 -1067z m-4128 -498 c3 -3 -18 -67 -47 -143 -29 -75 -82
-217 -118 -314 -36 -98 -69 -178 -73 -178 -4 0 -15 44 -25 98 l-18 98 78 229
c43 127 82 235 87 241 6 9 22 7 60 -7 28 -10 53 -21 56 -24z m-778 -2015 c-20
-13 -60 -13 -60 0 0 6 17 10 38 10 27 0 33 -3 22 -10z"/>
<path d="M3402 5187 c-21 -22 -22 -32 -22 -196 0 -95 4 -181 10 -191 5 -10 25
-24 44 -30 28 -9 40 -8 64 4 16 8 32 22 36 31 3 8 6 93 7 187 l1 173 -27 22
c-35 30 -85 30 -113 0z"/>
<path d="M3401 4624 c-28 -35 -27 -75 2 -102 49 -47 127 -14 127 53 0 68 -88
101 -129 49z"/>
<path d="M5346 4260 l-140 -59 -83 -118 c-70 -100 -83 -124 -83 -158 0 -50 21
-81 61 -90 53 -12 82 10 152 113 l65 97 87 38 86 39 96 -34 95 -33 39 -110
c21 -60 39 -121 39 -133 0 -19 -74 -324 -95 -392 -3 -8 -15 -27 -27 -41 -13
-15 -62 -75 -109 -135 -79 -100 -91 -111 -145 -132 -32 -13 -108 -49 -169 -81
-96 -50 -111 -61 -123 -93 -20 -51 -1 -89 54 -106 40 -13 40 -12 225 77 201
99 211 106 344 271 38 47 73 87 77 88 21 9 50 95 102 304 31 124 56 235 56
247 0 29 -120 359 -136 376 -8 7 -51 26 -96 41 -46 14 -116 40 -156 55 -40 16
-74 29 -75 28 -1 0 -65 -27 -141 -59z"/>
<path d="M4092 4117 c-26 -27 -29 -73 -6 -105 20 -29 83 -31 108 -3 28 31 32
85 7 110 -29 29 -81 28 -109 -2z"/>
<path d="M5498 3857 c-11 -9 -19 -35 -23 -78 -12 -122 -27 -183 -56 -241 -28
-55 -49 -68 -49 -31 0 29 -39 79 -81 102 -75 42 -182 13 -220 -61 -10 -21 -19
-56 -19 -78 0 -146 147 -215 310 -146 133 56 209 186 230 391 9 93 9 110 -5
131 -17 27 -59 32 -87 11z m-254 -366 c22 -18 20 -44 -4 -66 -44 -40 -105 20
-65 65 19 21 44 21 69 1z"/>
</g>
</svg>
